<svg width="145" height="62" viewBox="0 0 145 62" fill="none" xmlns="http://www.w3.org/2000/svg">
<path d="M11.385 14.78V47H2.97V14.78H11.385Z" fill="#0DCDAA"/>
<path d="M46.195 14.78L35.71 47H26.035L15.82 14.78H24.64L27.565 24.14C29.215 29.39 30.355 34.25 30.985 38.72C31.675 34.22 32.83 29.375 34.45 24.185L37.375 14.78H46.195ZM74.7697 14.78V21.71H57.3996V27.065H73.2846V33.68H57.3996V40.07H75.1746V47H48.9846V14.78H74.7697ZM107.911 14.78V47H99.7211L91.0361 32.375L89.1911 29.09C88.8611 28.55 88.4111 27.635 87.8411 26.345C88.0511 28.715 88.1561 31.445 88.1561 34.535V47H79.9661V14.78H88.4711L96.4811 28.415C98.0411 31.115 99.2411 33.365 100.081 35.165C99.8411 32.015 99.7211 29.24 99.7211 26.84V14.78H107.911Z" fill="#0DCDAA"/>
<path d="M13.385 14.78V47H4.97V14.78H13.385Z" fill="#FFB459"/>
<path d="M141.35 14.78V22.025H131.72V47H123.35V22.025H113.765V14.78H141.35Z" fill="#FFB459"/>
<path d="M143.35 14.78V22.025H133.72V47H125.35V22.025H115.765V14.78H143.35Z" fill="#0DCDAA"/>
</svg>
